<svg xmlns="http://www.w3.org/2000/svg" fill="none" viewBox="0 0 1440 371">
  <path stroke="#00C8E8" stroke-width="20" d="M-1805 361H-28c43.078 0 78-34.922 78-78V146.663c0-44.229 35.89-80.066 80.119-80l589.381.88h640.62c16.34 0 29.97-12.493 31.38-28.771C1392.91 22.494 1406.54 10 1422.88 10H3236.5"/>
  <path stroke="#8838EC" stroke-width="20" d="M-1805 34.25H26c44.183 0 80 35.817 80 80V251c0 44.183-35.817 80-80 80h-1831"/>
  <path stroke="#0073B8" stroke-width="20" d="M-1805 302H18.782c33.137 0 60-26.863 60-60V99c0-33.137 26.863-60 60-60H3239"/>
</svg>