<svg xmlns="http://www.w3.org/2000/svg" fill="none" viewBox="0 0 472 262">
  <path fill="#0073B8" d="M11.282 222.379c0-4.958-.097-8.773-.282-11.428h7.874c.097 1.304.175 2.741.252 4.33.078 1.589.117 2.864.117 3.834h.185c1.234-3.054 2.828-5.338 4.773-6.85 1.944-1.513 4.15-2.265 6.629-2.265 1.701 0 3.091.152 4.17.457l-.651 8.03c-1.108-.333-2.44-.495-3.986-.495-3.674 0-6.376 1.475-8.107 4.425-1.73 2.949-2.595 6.965-2.595 12.045V260h-8.389v-37.602l.01-.019ZM49.253 256.859c-3.36-2.094-5.914-5.038-7.652-8.824-1.737-3.786-2.601-8.188-2.601-13.208s.93-9.749 2.782-13.479c1.85-3.73 4.395-6.553 7.623-8.469C52.633 210.963 56.27 210 60.313 210c4.918 0 8.915 1.14 11.99 3.412 3.077 2.271 5.298 5.16 6.656 8.665 1.358 3.505 2.041 7.235 2.041 11.189 0 1.01-.057 2.29-.18 3.833H47.6c0 2.579.503 5.103 1.52 7.552 1.006 2.449 2.553 4.468 4.642 6.058 2.079 1.589 4.642 2.383 7.69 2.383 1.898 0 3.626-.262 5.183-.776 1.557-.523 2.953-1.196 4.206-2.028 1.253-.832 2.63-1.898 4.139-3.206l4.434 5.748a49.307 49.307 0 0 1-4.567 3.384c-1.51.982-3.418 1.86-5.725 2.627-2.306.776-4.86 1.159-7.67 1.159-4.766 0-8.83-1.047-12.2-3.141Zm23.374-26.491c-.39-4.571-1.614-7.964-3.665-10.179-2.05-2.216-4.937-3.319-8.64-3.319-2.021 0-3.958.468-5.819 1.403-1.851.934-3.408 2.411-4.661 4.43-1.253 2.019-1.956 4.581-2.108 7.665h24.893ZM87 253.28l40.9-17.49L87 218.34V211l47.48 19.93v9.77L87 260.58v-7.3Z"/>
  <path fill="#13B9E1" d="M244.319 261c-10.116 0-18.723-2.074-25.822-6.221-7.099-4.148-12.468-9.901-16.106-17.26-3.594-7.358-5.391-15.832-5.391-25.42 0-9.767 1.863-18.263 5.59-25.488 3.727-7.225 9.074-12.8 16.04-16.724 7.01-3.925 15.285-5.887 24.824-5.887 9.894 0 18.169 2.007 24.824 6.021 6.655 4.013 11.78 9.544 15.374 16.59l-16.306 7.961c-2.085-3.969-5.124-7.247-9.117-9.834-3.949-2.587-8.741-3.88-14.376-3.88-5.368 0-10.116 1.293-14.242 3.88-4.082 2.587-7.254 6.244-9.517 10.971-2.219 4.683-3.328 10.146-3.328 16.39 0 6.332 1.043 11.907 3.128 16.724 2.086 4.816 5.191 8.563 9.318 11.238 4.17 2.676 9.206 4.014 15.107 4.014 11.137 0 19.434-5.352 24.891-16.055l16.106 8.362c-3.284 7.225-8.297 13.134-15.041 17.728-6.7 4.593-15.352 6.89-25.956 6.89ZM354.531 236.917h-37.137l-7.52 22.745h-19.633l34.208-94.257h23.16l34.075 94.257h-19.633l-7.52-22.745Zm-4.859-14.784-9.45-28.498c-.133-.446-1.376-4.526-3.727-12.242l-.466-1.472c-.266.982-.821 2.855-1.664 5.62a171.94 171.94 0 0 1-2.595 8.094l-9.451 28.498h27.353ZM392.865 165.405h42.128c7.809 0 14.309 1.271 19.5 3.813 5.236 2.542 9.118 6.11 11.647 10.703 2.573 4.594 3.86 9.99 3.86 16.189 0 5.753-1.265 11.038-3.794 15.855-2.484 4.816-6.3 8.674-11.447 11.573-5.102 2.899-11.425 4.348-18.967 4.348h-23.294v31.776h-19.633v-94.257Zm40.464 45.891c5.635 0 9.85-1.316 12.645-3.947 2.84-2.676 4.26-6.333 4.26-10.971 0-4.683-1.464-8.228-4.393-10.637-2.928-2.408-7.276-3.612-13.044-3.612h-20.299v29.167h20.831Z"/>
  <path fill="#0090DA" d="M14.477 147.062s-10.532 5.779 2.79 13.211c11.846 6.611 26.076-.245 26.076-.245l-11.576-14.779-17.29 1.813ZM285 121.527c0 4.847-.244 9.256-.673 12.855-.595 4.886-1.541 8.28-2.731 9.217a1.635 1.635 0 0 1-.4.244c-33.49 12.045-79.19.195-81.248-.351 0 0-65.83-22.94-118.581-27.037.078-.029.156-.068.234-.097-.176 0-.273.078-.43.088h-.038v-.02l21.621-55.789s2.526-7.569 8.192-16.064c4.789-7.207 11.849-15.078 21.544-19.545 7.392-3.375 16.511-5.433 25.6-6.691 5.891-.82 11.762-1.297 17.135-1.57h.088c8.036-.41 16.755-.8 16.755-.8.848-5.54 6.554-6.223 8.68-5.9 4.856.74 7.441 4.037 6.67 8.24 0 0 34.212 16.016 42.59 22.833 3.891 3.16 19.827 18.95 26.985 34.995a74.6 74.6 0 0 1 4.233 12.114c2.662 10.63 3.764 22.94 3.774 33.278Z"/>
  <path fill="#009BE2" d="M199.475 143.421c-1.138 1.189-21.507 22.148-49.133 35.64-6.313-11.581-31.049-52.573-69.21-62.623.02 0 .05-.02.069-.029 52.615 4.094 118.274 27.022 118.274 27.022v-.01Z"/>
  <path fill="#00BEEC" d="M150.746 178.8c-10.157 4.914-21.292 8.838-32.817 10.431-6.443.893-13.002 1.049-19.581.252 1.525-19.395 2.16-59.905-17.215-73.045.02 0 .039-.02.058-.029 38.351 10.023 63.201 50.853 69.555 62.391Z"/>
  <path fill="#00C8E8" d="M98.347 189.99a82.144 82.144 0 0 1-2.633-.372c-8.728-1.419-17.446-4.618-25.94-10.137-13.402-8.708-45.504-33.532-55.184-32.417h-.087l.126-.019c-1.186.137 18.038-8.66 37.505-17.476l-.165-.059h.301c4.111-1.868 8.242-3.737 12.197-5.518 6.318-2.857 12.168-5.499 16.775-7.583C100.505 129.647 99.873 170.46 98.357 190l-.01-.01Z"/>
  <path fill="#0073B8" d="M184 211h-47v6h47v-6ZM184 233h-36v6h36v-6ZM184 254h-48v6h48v-6Z"/>
</svg>